{
    "asset" : {
        "generator" : "Khronos glTF Blender I/O v3.4.50",
        "version" : "2.0"
    },
    "scene" : 0,
    "scenes" : [
        {
            "name" : "Scene",
            "nodes" : [
                0,
                1
            ]
        }
    ],
    "nodes" : [
        {
            "mesh" : 0,
            "name" : "Curve.001",
            "rotation" : [
                0.7071068286895752,
                0,
                0,
                0.7071068286895752
            ],
            "scale" : [
                25.03404998779297,
                13,
                25.03404998779297
            ]
        },
        {
            "mesh" : 1,
            "name" : "Curve.004",
            "rotation" : [
                0.7071068286895752,
                0,
                0,
                0.7071068286895752
            ],
            "scale" : [
                40.57455825805664,
                13,
                40.57455825805664
            ],
            "translation" : [
                -2.4955389499664307,
                -1.6606957912445068,
                0
            ]
        }
    ],
    "materials" : [
        {
            "doubleSided" : true,
            "name" : "Procedural Slime",
            "pbrMetallicRoughness" : {
                "baseColorFactor" : [
                    0.17102108895778656,
                    0.5488552451133728,
                    0,
                    1
                ],
                "metallicFactor" : 0.15000000596046448
            }
        }
    ],
    "meshes" : [
        {
            "name" : "Curve.001",
            "primitives" : [
                {
                    "attributes" : {
                        "POSITION" : 0,
                        "TEXCOORD_0" : 1,
                        "NORMAL" : 2
                    },
                    "indices" : 3,
                    "material" : 0
                }
            ]
        },
        {
            "name" : "Curve.003",
            "primitives" : [
                {
                    "attributes" : {
                        "POSITION" : 4,
                        "TEXCOORD_0" : 5,
                        "NORMAL" : 6
                    },
                    "indices" : 7,
                    "material" : 0
                }
            ]
        }
    ],
    "accessors" : [
        {
            "bufferView" : 0,
            "componentType" : 5126,
            "count" : 153407,
            "max" : [
                0.0744706317782402,
                0.015000100247561932,
                0.03272364288568497
            ],
            "min" : [
                -0.07811412960290909,
                -0.015000100247561932,
                -0.0363398939371109
            ],
            "type" : "VEC3"
        },
        {
            "bufferView" : 1,
            "componentType" : 5126,
            "count" : 153407,
            "type" : "VEC2"
        },
        {
            "bufferView" : 2,
            "componentType" : 5126,
            "count" : 153407,
            "type" : "VEC3"
        },
        {
            "bufferView" : 3,
            "componentType" : 5125,
            "count" : 876732,
            "type" : "SCALAR"
        },
        {
            "bufferView" : 4,
            "componentType" : 5126,
            "count" : 311997,
            "max" : [
                0.13954797387123108,
                0.01498914510011673,
                0.02243938110768795
            ],
            "min" : [
                -0.014428454451262951,
                -0.014990457333624363,
                -0.025821011513471603
            ],
            "type" : "VEC3"
        },
        {
            "bufferView" : 5,
            "componentType" : 5126,
            "count" : 311997,
            "type" : "VEC2"
        },
        {
            "bufferView" : 6,
            "componentType" : 5126,
            "count" : 311997,
            "type" : "VEC3"
        },
        {
            "bufferView" : 7,
            "componentType" : 5125,
            "count" : 527712,
            "type" : "SCALAR"
        }
    ],
    "bufferViews" : [
        {
            "buffer" : 0,
            "byteLength" : 1840884,
            "byteOffset" : 0,
            "target" : 34962
        },
        {
            "buffer" : 0,
            "byteLength" : 1227256,
            "byteOffset" : 1840884,
            "target" : 34962
        },
        {
            "buffer" : 0,
            "byteLength" : 1840884,
            "byteOffset" : 3068140,
            "target" : 34962
        },
        {
            "buffer" : 0,
            "byteLength" : 3506928,
            "byteOffset" : 4909024,
            "target" : 34963
        },
        {
            "buffer" : 0,
            "byteLength" : 3743964,
            "byteOffset" : 8415952,
            "target" : 34962
        },
        {
            "buffer" : 0,
            "byteLength" : 2495976,
            "byteOffset" : 12159916,
            "target" : 34962
        },
        {
            "buffer" : 0,
            "byteLength" : 3743964,
            "byteOffset" : 14655892,
            "target" : 34962
        },
        {
            "buffer" : 0,
            "byteLength" : 2110848,
            "byteOffset" : 18399856,
            "target" : 34963
        }
    ],
    "buffers" : [
        {
            "byteLength" : 20510704,
            "uri" : "name-logo.bin"
        }
    ]
}
